<svg width="64" height="64" viewBox="0 0 64 64" fill="none" xmlns="http://www.w3.org/2000/svg">
<circle cx="32" cy="32" r="32" fill="#FE6651"/>
<path d="M32.3797 28.9625L42.6336 18.7086C43.5772 17.765 45.1071 17.765 46.0508 18.7086C46.9944 19.6522 46.9944 21.1821 46.0508 22.1257L35.7968 32.3797L46.0508 42.6336C46.9944 43.5772 46.9944 45.1071 46.0508 46.0508C45.1071 46.9944 43.5772 46.9944 42.6336 46.0508L32.3797 35.7968L22.1257 46.0508C21.1821 46.9944 19.6522 46.9944 18.7086 46.0508C17.765 45.1071 17.765 43.5772 18.7086 42.6336L28.9625 32.3797L18.7086 22.1257C17.765 21.1821 17.765 19.6522 18.7086 18.7086C19.6522 17.765 21.1821 17.765 22.1258 18.7086L32.3797 28.9625Z" fill="white"/>
</svg>
