<svg width="24" height="24" viewBox="0 0 24 24" fill="none" xmlns="http://www.w3.org/2000/svg">
<path d="M12 15C12.7956 15 13.5587 14.6839 14.1213 14.1213C14.6839 13.5587 15 12.7956 15 12C15 11.2044 14.6839 10.4413 14.1213 9.87868C13.5587 9.31607 12.7956 9 12 9C11.2044 9 10.4413 9.31607 9.87868 9.87868C9.31607 10.4413 9 11.2044 9 12C9 12.7956 9.31607 13.5587 9.87868 14.1213C10.4413 14.6839 11.2044 15 12 15Z" fill="white"/>
<path fill-rule="evenodd" clip-rule="evenodd" d="M0.797245 12.7081C0.62097 12.2501 0.62097 11.7429 0.797245 11.2849C1.66992 9.02229 3.20739 7.07703 5.2072 5.70527C7.207 4.3335 9.57538 3.59957 12.0004 3.6001C17.1088 3.6001 21.472 6.7921 23.2036 11.2921C23.38 11.7493 23.3788 12.2569 23.2036 12.7153C22.331 14.9779 20.7935 16.9232 18.7937 18.2949C16.7939 19.6667 14.4255 20.4006 12.0004 20.4001C6.89205 20.4001 2.52885 17.2081 0.797245 12.7081ZM16.8004 12.0001C16.8004 13.2731 16.2947 14.494 15.3946 15.3942C14.4944 16.2944 13.2735 16.8001 12.0004 16.8001C10.7274 16.8001 9.50651 16.2944 8.60633 15.3942C7.70616 14.494 7.20045 13.2731 7.20045 12.0001C7.20045 10.7271 7.70616 9.50616 8.60633 8.60599C9.50651 7.70581 10.7274 7.2001 12.0004 7.2001C13.2735 7.2001 14.4944 7.70581 15.3946 8.60599C16.2947 9.50616 16.8004 10.7271 16.8004 12.0001Z" fill="white"/>
</svg>
