<svg width="32" height="32" viewBox="0 0 32 32" fill="none" xmlns="http://www.w3.org/2000/svg">
<path d="M10.6667 8H8V10.6667H10.6667V8Z" fill="white"/>
<path d="M4 7.33333C4 6.44928 4.35119 5.60143 4.97631 4.97631C5.60143 4.35119 6.44928 4 7.33333 4H11.3333C12.2174 4 13.0652 4.35119 13.6904 4.97631C14.3155 5.60143 14.6667 6.44928 14.6667 7.33333V11.3333C14.6667 12.2174 14.3155 13.0652 13.6904 13.6904C13.0652 14.3155 12.2174 14.6667 11.3333 14.6667H7.33333C6.44928 14.6667 5.60143 14.3155 4.97631 13.6904C4.35119 13.0652 4 12.2174 4 11.3333V7.33333ZM7.33333 6.66667C7.15652 6.66667 6.98695 6.7369 6.86193 6.86193C6.7369 6.98695 6.66667 7.15652 6.66667 7.33333V11.3333C6.66667 11.5101 6.7369 11.6797 6.86193 11.8047C6.98695 11.9298 7.15652 12 7.33333 12H11.3333C11.5101 12 11.6797 11.9298 11.8047 11.8047C11.9298 11.6797 12 11.5101 12 11.3333V7.33333C12 7.15652 11.9298 6.98695 11.8047 6.86193C11.6797 6.7369 11.5101 6.66667 11.3333 6.66667H7.33333ZM8 21.3333H10.6667V24H8V21.3333Z" fill="white"/>
<path d="M4 20.6667C4 19.7826 4.35119 18.9348 4.97631 18.3096C5.60143 17.6845 6.44928 17.3333 7.33333 17.3333H11.3333C12.2174 17.3333 13.0652 17.6845 13.6904 18.3096C14.3155 18.9348 14.6667 19.7826 14.6667 20.6667V24.6667C14.6667 25.5507 14.3155 26.3986 13.6904 27.0237C13.0652 27.6488 12.2174 28 11.3333 28H7.33333C6.44928 28 5.60143 27.6488 4.97631 27.0237C4.35119 26.3986 4 25.5507 4 24.6667V20.6667ZM7.33333 20C7.15652 20 6.98695 20.0702 6.86193 20.1953C6.7369 20.3203 6.66667 20.4899 6.66667 20.6667V24.6667C6.66667 24.8435 6.7369 25.013 6.86193 25.1381C6.98695 25.2631 7.15652 25.3333 7.33333 25.3333H11.3333C11.5101 25.3333 11.6797 25.2631 11.8047 25.1381C11.9298 25.013 12 24.8435 12 24.6667V20.6667C12 20.4899 11.9298 20.3203 11.8047 20.1953C11.6797 20.0702 11.5101 20 11.3333 20H7.33333ZM24 8H21.3333V10.6667H24V8Z" fill="white"/>
<path d="M20.6673 4C19.7833 4 18.9354 4.35119 18.3103 4.97631C17.6852 5.60143 17.334 6.44928 17.334 7.33333V11.3333C17.334 12.2174 17.6852 13.0652 18.3103 13.6904C18.9354 14.3155 19.7833 14.6667 20.6673 14.6667H24.6673C25.5514 14.6667 26.3992 14.3155 27.0243 13.6904C27.6495 13.0652 28.0007 12.2174 28.0007 11.3333V7.33333C28.0007 6.44928 27.6495 5.60143 27.0243 4.97631C26.3992 4.35119 25.5514 4 24.6673 4H20.6673ZM20.0007 7.33333C20.0007 7.15652 20.0709 6.98695 20.1959 6.86193C20.3209 6.7369 20.4905 6.66667 20.6673 6.66667H24.6673C24.8441 6.66667 25.0137 6.7369 25.1387 6.86193C25.2637 6.98695 25.334 7.15652 25.334 7.33333V11.3333C25.334 11.5101 25.2637 11.6797 25.1387 11.8047C25.0137 11.9298 24.8441 12 24.6673 12H20.6673C20.4905 12 20.3209 11.9298 20.1959 11.8047C20.0709 11.6797 20.0007 11.5101 20.0007 11.3333V7.33333ZM17.334 17.3333H21.0007V21H17.334V17.3333ZM24.334 21H21.0007V24.3333H17.334V28H21.0007V24.3333H24.334V28H28.0007V24.3333H24.334V21ZM24.334 21V17.3333H28.0007V21H24.334Z" fill="white"/>
</svg>
