<svg width="32" height="32" viewBox="0 0 32 32" fill="none" xmlns="http://www.w3.org/2000/svg">
<path d="M25.6667 8.06V7.66667C25.6667 6.69421 25.2804 5.76158 24.5927 5.07394C23.9051 4.38631 22.9725 4 22 4H7C6.58822 4.00007 6.18085 4.08491 5.80328 4.24924C5.42571 4.41357 5.08601 4.65388 4.80534 4.95519C4.52466 5.2565 4.30902 5.61237 4.17185 6.00063C4.03467 6.3889 3.9789 6.80125 4.008 7.212C4.0029 7.25225 4.00023 7.29276 4 7.33333V23.6667C4 24.8159 4.45655 25.9181 5.2692 26.7308C6.08186 27.5435 7.18406 28 8.33333 28H25C25.9725 28 26.9051 27.6137 27.5927 26.9261C28.2804 26.2384 28.6667 25.3058 28.6667 24.3333V11.6667C28.6669 10.8097 28.367 9.97964 27.8189 9.32077C27.2709 8.6619 26.5094 8.21582 25.6667 8.06ZM7 6H22C22.92 6 23.6667 6.74667 23.6667 7.66667V8H7C6.73478 8 6.48043 7.89464 6.29289 7.70711C6.10536 7.51957 6 7.26522 6 7C6 6.73478 6.10536 6.48043 6.29289 6.29289C6.48043 6.10536 6.73478 6 7 6ZM21.6667 17.3333H24.3333C24.5985 17.3333 24.8529 17.4387 25.0404 17.6262C25.228 17.8138 25.3333 18.0681 25.3333 18.3333C25.3333 18.5986 25.228 18.8529 25.0404 19.0404C24.8529 19.228 24.5985 19.3333 24.3333 19.3333H21.6667C21.4014 19.3333 21.1471 19.228 20.9596 19.0404C20.772 18.8529 20.6667 18.5986 20.6667 18.3333C20.6667 18.0681 20.772 17.8138 20.9596 17.6262C21.1471 17.4387 21.4014 17.3333 21.6667 17.3333Z" fill="white"/>
</svg>
