<svg width="32" height="32" viewBox="0 0 32 32" fill="none" xmlns="http://www.w3.org/2000/svg">
<path d="M8.99609 5.33347H13.6148C13.8681 5.33355 14.112 5.42979 14.2971 5.60276C14.4823 5.77574 14.5949 6.01253 14.6121 6.26531C14.6294 6.51808 14.5501 6.76799 14.3902 6.96453C14.2303 7.16108 14.0018 7.2896 13.7508 7.32413L13.6148 7.33347H8.99609C8.23593 7.33337 7.50407 7.62186 6.94842 8.14063C6.39278 8.65939 6.05479 9.36975 6.00276 10.1281L5.99609 10.3335V23.0001C5.996 23.7603 6.28449 24.4922 6.80325 25.0478C7.32202 25.6034 8.03237 25.9414 8.79076 25.9935L8.99609 26.0001H21.6628C22.4229 26.0002 23.1548 25.7117 23.7104 25.193C24.2661 24.6742 24.6041 23.9639 24.6561 23.2055L24.6628 23.0001V22.3361C24.6605 22.0811 24.7558 21.8348 24.9292 21.6478C25.1025 21.4607 25.3408 21.3469 25.5953 21.3297C25.8497 21.3125 26.1012 21.3932 26.2981 21.5552C26.4951 21.7173 26.6226 21.9484 26.6548 22.2015L26.6628 22.3361V23.0001C26.6629 24.2801 26.1721 25.5114 25.2915 26.4404C24.4109 27.3693 23.2076 27.9252 21.9294 27.9935L21.6628 28.0001H8.99609C7.7161 28.0003 6.4848 27.5095 5.55585 26.6289C4.62689 25.7483 4.07103 24.545 4.00276 23.2668L3.99609 23.0001V10.3335C3.99598 9.05347 4.48676 7.82218 5.36735 6.89322C6.24793 5.96426 7.45125 5.4084 8.72943 5.34013L8.99609 5.33347ZM19.3334 8.72547V5.00013C19.3333 4.8162 19.3839 4.63579 19.4797 4.47876C19.5755 4.32173 19.7128 4.19416 19.8764 4.11008C20.04 4.02601 20.2236 3.98869 20.407 4.00222C20.5905 4.01576 20.7666 4.07963 20.9161 4.1868L21.0254 4.2788L29.0174 11.9455C29.3908 12.3028 29.4254 12.8788 29.1201 13.2748L29.0174 13.3881L21.0254 21.0575C20.8928 21.1849 20.7276 21.2733 20.548 21.3129C20.3684 21.3525 20.1813 21.3419 20.0074 21.282C19.8334 21.2222 19.6794 21.1156 19.5621 20.9739C19.4449 20.8322 19.369 20.6609 19.3428 20.4788L19.3334 20.3361V16.6001L18.9054 16.5921C15.3614 16.5815 12.3321 18.0361 9.75209 20.9935C9.09076 21.7508 7.85209 21.1695 8.01076 20.1775C9.11343 13.3241 12.8108 9.4508 18.9308 8.76547L19.3334 8.72547Z" fill="white"/>
</svg>
